<?xml version="1.0" encoding="UTF-8"?>
<!-- Generator: Adobe Illustrator 16.0.0, SVG Export Plug-In . SVG Version: 6.00 Build 0)  -->
<!DOCTYPE svg PUBLIC "-//W3C//DTD SVG 1.1//EN" "http://www.w3.org/Graphics/SVG/1.1/DTD/svg11.dtd">
<svg version="1.1" id="Layer_1" xmlns:sketch="http://www.bohemiancoding.com/sketch/ns" xmlns="http://www.w3.org/2000/svg" xmlns:xlink="http://www.w3.org/1999/xlink" x="0px" y="0px" width="4103.18px" height="2339.532px" viewBox="-525.656 -459.391 4103.18 2339.532" enable-background="new -525.656 -459.391 4103.18 2339.532" xml:space="preserve">
<rect x="-525.656" y="-459.391" fill="#494949" width="4103.18" height="2339.532"/>
<title>plex-logo-light</title>
<desc>Created with Sketch.</desc>
<g>
	<path id="X" sketch:type="MSShapeGroup" fill="#FFFFFF" d="M3068.929,210.125h-290.001l-289.999,500l289.999,500h289.748   l-289.748-499.75L3068.929,210.125"/>
	
		<radialGradient id="chevron_1_" cx="1244.3225" cy="919.8711" r="0.925" gradientTransform="matrix(610 0 0 -1000.5 -756323.625 921038.75)" gradientUnits="userSpaceOnUse">
		<stop offset="0" style="stop-color:#F9BE03"/>
		<stop offset="1" style="stop-color:#CC7C19"/>
	</radialGradient>
	<path id="chevron" sketch:type="MSShapeGroup" fill="url(#chevron_1_)" d="M2168.94,210.125h290l320,500.25l-320,500.25h-290   l319.999-500.25L2168.94,210.125"/>
	<path id="E" sketch:type="MSShapeGroup" fill="#FFFFFF" d="M2068.886,1210.125h-577.073v-1000h577.073v173.737h-364.607v219.562   h339.255v173.731h-339.255v257.864h364.607V1210.125"/>
	<path id="L" sketch:type="MSShapeGroup" fill="#FFFFFF" d="M774.215,1210.125v-1000h212.04v824.895h405.609v175.105H774.215"/>
	<path id="Path" fill="#FFFFFF" d="M572.886,768.949c-67.268,57.007-162.91,85.501-286.938,85.501H194.98v355.675H-17.06V854.073   v-173.61l290,0.359c177.562-2.069,186.842-110.818,186.842-148.497c0-34.979,0-146.755-157.842-148.5l-319,0.003V210.125h319.424   c121.293,0,213.515,26.107,276.677,78.321c63.152,52.213,94.733,130.071,94.733,233.581   C673.774,629.651,640.141,711.955,572.886,768.949z"/>
	<rect id="Path_1_" x="-17.06" y="320.125" fill="#FFFFFF" width="212.2" height="429"/>
</g>
</svg>